#!OML:ASF I:\Actors\actors\Patient Classification 2\Patient 1\Session 1\actor1.ASF
:FULLY-SPECIFIED
:DEGREES
359
root -0.879326 18.0634 5.88087 0.542867 31.1046 -7.5863
lowerback 17.8404 6.01924 5.26443
upperback 1.62704 8.92098 -0.894312
thorax -7.20256 4.1657 -5.95489
lowerneck -3.70919 -16.3604 -12.3487
upperneck 7.00595 -22.5534 14.2284
head 5.73724 -10.8896 4.38594
rclavicle 6.03311e-014 1.19271e-014
rhumerus -4.13445 -17.2533 -70.1161
rradius 63.9299
rwrist -50.2593
rhand -26.6412 -40.9997
rfingers 7.12502
rthumb -0.0735157 -70.9795
lclavicle 6.03311e-014 1.19271e-014
lhumerus -57.0015 -8.3684 76.9998
lradius 81.2213
lwrist 26.7263
lhand -6.1139 -19.8361
lfingers 7.12502
lthumb 19.7229 9.18331
rfemur 10.3836 -17.1165 24.39
rtibia -6.36111e-015
rfoot -27.5605 -20.5823
rtoes 3.68261
lfemur 12.5968 -22.5859 -8.17645
ltibia -31.1606
lfoot 12.7679 6.54308
ltoes -14.8355
360
root -0.918084 18.0491 5.88035 0.481658 32.188 -7.44993
lowerback 18.2797 6.18675 5.21991
upperback 1.77821 9.1351 -1.08581
thorax -7.22307 4.27067 -6.22471
lowerneck -3.08667 -16.6905 -12.5976
upperneck 6.66554 -23.1017 14.9898
head 5.72848 -11.1691 4.61492
rclavicle -1.62805e-013 4.13472e-014
rhumerus -3.81591 -19.3341 -73.4403
rradius 63.0722
rwrist -49.953
rhand -26.0219 -41.3811
rfingers 7.12502
rthumb 0.524639 -71.3602
lclavicle -1.62805e-013 4.13472e-014
lhumerus -57.3263 -7.40745 77.2849
lradius 81.5289
lwrist 27.0376
lhand -6.50062 -19.3831
lfingers 7.12502
lthumb 19.351 9.6741
rfemur 11.8431 -17.9683 24.379
rtibia -2.75147
rfoot -26.3168 -21.9203
rtoes 3.13108
lfemur 12.4248 -22.8104 -8.18922
ltibia -31.4707
lfoot 13.2629 5.9478
ltoes -15.6704
361
root -0.96427 18.0311 5.87324 0.23951 33.3382 -7.48856
lowerback 18.9755 6.31051 5.34799
upperback 1.97746 9.34174 -1.22567
thorax -7.30946 4.36428 -6.56626
lowerneck -2.41232 -17.0361 -12.8954
upperneck 6.11565 -23.6585 15.8431
head 5.67201 -11.4634 4.88384
rclavicle -2.94201e-014 -1.55052e-014
rhumerus -3.68884 -21.0127 -76.7306
rradius 62.6282
rwrist -49.5517
rhand -24.5368 -41.7593
rfingers 7.12502
rthumb 1.95888 -71.7301
lclavicle -2.94201e-014 -1.55052e-014
lhumerus -57.3743 -6.37992 77.6441
lradius 81.9251
lwrist 28.1761
lhand -7.08173 -18.8765
lfingers 7.12502
lthumb 18.7922 10.2358
rfemur 14.9221 -18.8567 24.5478
rtibia -8.60682
rfoot -23.766 -24.2882
rtoes 2.79275
lfemur 12.3144 -23.0727 -8.06362
ltibia -31.8387
lfoot 13.8398 5.34812
ltoes -16.2682
362
root -1.02477 18.0096 5.86277 -0.13006 34.4457 -7.74824
lowerback 19.8638 6.47208 5.53189
upperback 2.19645 9.62888 -1.25637
thorax -7.47182 4.49106 -6.86848
lowerneck -1.78163 -17.4225 -13.0763
upperneck 5.42548 -24.2346 16.5627
head 5.55736 -11.7769 5.09714
rclavicle -4.6615e-014 -9.34288e-015
rhumerus -3.92268 -21.9872 -79.7856
rradius 62.759
rwrist -49.8272
rhand -24.2748 -41.1884
rfingers 7.12502
rthumb 2.21198 -71.1567
lclavicle -4.6615e-014 -9.34288e-015
lhumerus -57.1212 -5.22731 78.1886
lradius 82.4788
lwrist 30.01
lhand -7.73933 -17.8492
lfingers 7.12502
lthumb 18.1596 11.3231
rfemur 16.8235 -19.7598 24.944
rtibia -12.2389
rfoot -22.0413 -25.9453
rtoes 2.25921
lfemur 12.1726 -23.306 -7.6938
ltibia -32.1936
lfoot 14.4386 4.82834
ltoes -16.5429
363
root -1.09694 17.9894 5.84489 -0.0312018 35.6115 -7.54304
lowerback 20.8226 6.71179 5.40528
upperback 2.38497 9.94335 -1.41231
thorax -7.72381 4.63121 -7.1633
lowerneck -1.15892 -17.8403 -13.3565
upperneck 4.59212 -24.8499 17.4813
head 5.45305 -12.1138 5.37313
rclavicle 4.25399e-014 -4.19436e-014
rhumerus -4.45384 -21.8616 -82.4226
rradius 63.3586
rwrist -51.6029
rhand -23.2305 -40.6489
rfingers 7.12502
rthumb 3.22046 -70.6043
lclavicle 4.25399e-014 -4.19436e-014
lhumerus -56.6914 -4.21043 78.8027
lradius 83.1066
lwrist 32.1858
lhand -8.5265 -16.7764
lfingers 7.12502
lthumb 17.4022 12.4646
rfemur 18.1833 -20.5481 25.0619
rtibia -15.3618
rfoot -20.5264 -27.6076
rtoes 1.32181
lfemur 11.7491 -23.5425 -7.63563
ltibia -32.6166
lfoot 15.1879 4.30674
ltoes -17.023
364
root -1.17636 17.9795 5.82337 0.260085 36.8242 -7.16966
lowerback 21.8357 6.97149 5.30036
upperback 2.62323 10.2771 -1.6646
thorax -7.91783 4.78378 -7.58931
lowerneck -0.578197 -18.2772 -13.6299
upperneck 3.56544 -25.4752 18.5751
head 5.33248 -12.4616 5.69463
rclavicle -6.62947e-014 4.7112e-014
rhumerus -5.0926 -20.7824 -84.6324
rradius 64.3594
rwrist -53.4942
rhand -22.7547 -39.9578
rfingers 7.12502
rthumb 3.67999 -69.9058
lclavicle -6.62947e-014 4.7112e-014
lhumerus -56.0621 -3.44779 79.3622
lradius 83.7639
lwrist 34.3118
lhand -9.28086 -15.8719
lfingers 7.12502
lthumb 16.6761 13.4318
rfemur 19.2665 -21.3046 25.1035
rtibia -18.2349
rfoot -19.0841 -29.1255
rtoes 0.873123
lfemur 11.1859 -23.7533 -7.67599
ltibia -33.073
lfoot 15.9817 3.77435
ltoes -17.8758
365
root -1.26479 17.9502 5.79964 0.436498 38.0523 -7.02424
lowerback 22.8202 7.20748 5.20684
upperback 2.94477 10.5889 -1.76194
thorax -8.02826 4.93428 -7.84282
lowerneck -0.221014 -18.6954 -13.6431
upperneck 2.4922 -26.0101 19.3793
head 5.15313 -12.7663 5.89926
rclavicle 1.44715e-013 -2.61402e-014
rhumerus -5.6317 -18.9889 -86.5433
rradius 65.6391
rwrist -54.3955
rhand -20.8671 -40.2661
rfingers 7.12502
rthumb 5.50269 -70.1747
lclavicle 1.44715e-013 -2.61402e-014
lhumerus -55.4744 -2.67071 79.9966
lradius 84.5869
lwrist 36.1589
lhand -9.94529 -15.1448
lfingers 7.12502
lthumb 16.0363 14.2115
rfemur 20.2417 -21.9525 25.4208
rtibia -20.9956
rfoot -17.7286 -30.5584
rtoes 1.08194
lfemur 10.6291 -23.8603 -7.47523
ltibia -33.6182
lfoot 16.8084 3.23186
ltoes -18.7337
366
root -1.36105 17.9182 5.77516 0.722357 39.375 -6.87486
lowerback 23.6844 7.41748 4.74171
upperback 3.28403 10.786 -1.61592
thorax -8.18706 5.03786 -7.58902
lowerneck -0.00911641 -19.0263 -13.6341
upperneck 1.48723 -26.382 19.8755
head 4.94733 -12.9923 6.02684
rclavicle 8.62446e-014 -4.54596e-014
rhumerus -6.24426 -16.1301 -88.0144
rradius 67.151
rwrist -54.8196
rhand -18.6301 -40.2478
rfingers 7.12502
rthumb 7.66215 -70.089
lclavicle 8.62446e-014 -4.54596e-014
lhumerus -55.0706 -1.62516 80.8349
lradius 85.492
lwrist 37.6542
lhand -10.5202 -14.7158
lfingers 7.12502
lthumb 15.4826 14.6842
rfemur 20.9555 -22.6528 25.8301
rtibia -23.5674
rfoot -16.3314 -31.9066
rtoes 1.30678
lfemur 9.92784 -23.9837 -7.17918
ltibia -34.2593
lfoot 17.6912 2.79874
ltoes -18.2514
367
root -1.45695 17.8828 5.74542 1.06962 40.7323 -6.74716
lowerback 24.8287 7.5645 5.49272
upperback 3.56366 11.1678 -2.09688
thorax -8.15925 5.20683 -8.77217
lowerneck 0.570914 -19.5852 -13.7877
upperneck 0.188154 -27.1436 21.3808
head 4.8441 -13.4317 6.42359
rclavicle 3.55328e-015 2.62893e-014
rhumerus -6.8815 -13.4237 -89.4272
rradius 68.6687
rwrist -55.086
rhand -16.435 -39.049
rfingers 7.12502
rthumb 9.78046 -68.8019
lclavicle 3.55328e-015 2.62893e-014
lhumerus -54.2655 -1.96814 81.1965
lradius 86.2556
lwrist 38.5606
lhand -10.5843 -14.7319
lfingers 7.12502
lthumb 15.4209 14.6729
rfemur 21.5395 -23.5284 26.2638
rtibia -26.1106
rfoot -14.6485 -33.0053
rtoes 1.45073
lfemur 9.16493 -24.1932 -6.81116
ltibia -35.0066
lfoot 18.5811 2.47868
ltoes -16.9586
368
root -1.54931 17.8416 5.70741 1.38926 42.0437 -6.77656
lowerback 25.7331 7.64109 6.16183
upperback 3.96497 11.4608 -2.31871
thorax -7.93564 5.36119 -9.55755
lowerneck 1.22038 -19.9923 -14.183
upperneck -1.34594 -27.6526 22.9181
head 4.67224 -13.7764 6.90944
rclavicle 1.06648e-013 -5.76476e-014
rhumerus -7.01867 -9.15817 -89.9887
rradius 69.5666
rwrist -55.3182
rhand -11.8941 -39.2731
rfingers 7.12502
rthumb 14.1591 -68.7706
lclavicle 1.06648e-013 -5.76476e-014
lhumerus -53.5291 -1.89761 81.6908
lradius 87.0111
lwrist 38.6082
lhand -9.8917 -14.7769
lfingers 7.12502
lthumb 16.0879 14.5752
rfemur 21.9785 -24.5886 26.8045
rtibia -28.5697
rfoot -12.701 -33.7719
rtoes 1.46047
lfemur 8.34853 -24.3006 -6.32014
ltibia -35.7871
lfoot 19.5085 1.9791
ltoes -17.5415
369
root -1.66592 17.8003 5.70064 2.21869 43.2572 -6.38143
lowerback 26.2889 7.9256 5.677
upperback 4.38662 11.7115 -2.33538
thorax -7.7869 5.51893 -9.42704
lowerneck 1.45425 -20.3143 -14.377
upperneck -2.67786 -27.9788 23.906
head 4.48855 -14.0105 7.20586
rclavicle -1.45312e-013 6.93758e-014
rhumerus -6.8251 -4.57408 -90.476
rradius 70.7788
rwrist -54.6292
rhand -7.00629 -39.5466
rfingers 7.12502
rthumb 18.8648 -68.6518
lclavicle -1.45312e-013 6.93758e-014
lhumerus -52.9054 -1.64347 82.3322
lradius 87.9449
lwrist 38.7936
lhand -9.3229 -14.3644
lfingers 7.12502
lthumb 16.6356 14.9427
rfemur 22.1055 -25.2719 27.2689
rtibia -30.9565
rfoot -11.0652 -34.6222
rtoes 1.81584
lfemur 7.28211 -24.2414 -5.98714
ltibia -36.5634
lfoot 20.5193 1.45856
ltoes -18.8003
370
root -1.7766 17.7548 5.68597 3.16461 44.4298 -5.97817
lowerback 26.8638 8.17008 5.35933
upperback 4.72148 11.9525 -2.36945
thorax -7.70887 5.65815 -9.41972
lowerneck 1.78334 -20.5816 -14.6256
upperneck -3.96774 -28.2314 24.8228
head 4.2919 -14.2186 7.51105
rclavicle 2.36554e-014 6.40087e-014
rhumerus -6.36684 -0.594057 -91.3072
rradius 71.9152
rwrist -53.0554
rhand -1.36775 -40.1779
rfingers 7.12502
rthumb 24.2797 -68.6604
lclavicle 2.36554e-014 6.40087e-014
lhumerus -52.5091 -1.72291 83.0494
lradius 89.0399
lwrist 39.5177
lhand -9.24731 -13.8678
lfingers 7.12502
lthumb 16.7084 15.4332
rfemur 22.0593 -26.0514 27.774
rtibia -33.2561
rfoot -9.34999 -35.2492
rtoes 2.16491
lfemur 6.11515 -24.2685 -5.59158
ltibia -37.3557
lfoot 21.5656 1.11922
ltoes -19.2275
371
root -1.88021 17.7065 5.66797 4.12653 45.4977 -5.54732
lowerback 27.5489 8.40879 5.2072
upperback 4.94027 12.2296 -2.44667
thorax -7.76323 5.79565 -9.59621
lowerneck 2.45199 -20.7827 -14.8328
upperneck -5.31821 -28.3983 25.7094
head 4.00266 -14.4173 7.86459
rclavicle 3.06128e-014 2.74323e-014
rhumerus -6.14371 4.37507 -91.2614
rradius 73.2977
rwrist -52.8121
rhand 4.59093 -40.1501
rfingers 7.12502
rthumb 29.9797 -67.7411
lclavicle 3.06128e-014 2.74323e-014
lhumerus -52.4134 -2.13783 83.6054
lradius 90.1036
lwrist 40.0902
lhand -8.889 -13.4343
lfingers 7.12502
lthumb 17.0533 15.8372
rfemur 21.9718 -26.9408 28.252
rtibia -35.4586
rfoot -7.47321 -35.6447
rtoes 1.93877
lfemur 4.99128 -24.3517 -5.23339
ltibia -38.1188
lfoot 22.4499 0.836825
ltoes -19.6935
372
root -1.97819 17.6551 5.64964 5.14686 46.4051 -5.09753
lowerback 28.1676 8.55622 5.17397
upperback 5.14583 12.4108 -2.61444
thorax -7.76547 5.88986 -9.90179
lowerneck 2.87699 -20.8895 -14.87
upperneck -6.4318 -28.4288 26.4426
head 3.74994 -14.5274 8.153
rclavicle -4.29375e-014 2.06736e-014
rhumerus -5.66271 9.82561 -90.9645
rradius 74.7815
rwrist -53.0194
rhand 10.6799 -41.9979
rfingers 7.12502
rthumb 35.7709 -68.3704
lclavicle -4.29375e-014 2.06736e-014
lhumerus -52.3679 -2.50866 83.8258
lradius 91.0531
lwrist 40.2949
lhand -8.11659 -12.9995
lfingers 7.12502
lthumb 17.7967 16.2061
rfemur 21.7527 -27.8352 28.752
rtibia -37.517
rfoot -5.61341 -35.9229
rtoes 1.40464
lfemur 3.8823 -24.3544 -4.88709
ltibia -38.8828
lfoot 23.2167 0.591969
ltoes -20.3619
